<?xml version="1.0" encoding="UTF-8"?>
<svg xmlns="http://www.w3.org/2000/svg" xmlns:xlink="http://www.w3.org/1999/xlink" width="150pt" height="149.999998pt" viewBox="0 0 150 149.999998" version="1.2">
<defs>
<clipPath id="clip1">
  <path d="M 12.867188 7.003906 L 137.367188 7.003906 L 137.367188 142.753906 L 12.867188 142.753906 Z M 12.867188 7.003906 "/>
</clipPath>
</defs>
<g id="surface1">
<g clip-path="url(#clip1)" clip-rule="nonzero">
<path style=" stroke:none;fill-rule:nonzero;fill:rgb(100%,87.059021%,34.899902%);fill-opacity:1;" d="M 75.246094 7.003906 C 37.382812 7.003906 12.921875 33.628906 12.921875 74.832031 C 12.921875 116.726562 36.800781 142.753906 75.246094 142.753906 C 113.53125 142.753906 137.3125 116.726562 137.3125 74.832031 C 137.3125 32.996094 113.53125 7.003906 75.246094 7.003906 Z M 75.246094 119.144531 C 53.082031 119.144531 39.574219 101.804688 39.574219 74.835938 C 39.574219 47.785156 53.417969 30.609375 75.246094 30.609375 C 96.988281 30.609375 110.660156 47.785156 110.660156 74.835938 C 110.660156 101.804688 97.070312 119.144531 75.246094 119.144531 Z M 75.246094 119.144531 "/>
</g>
</g>
</svg>
