<?xml version="1.0" encoding="UTF-8"?>
<svg xmlns="http://www.w3.org/2000/svg" xmlns:xlink="http://www.w3.org/1999/xlink" width="150pt" height="149.999998pt" viewBox="0 0 150 149.999998" version="1.2">
<defs>
<clipPath id="clip1">
  <path d="M 10.40625 10.242188 L 139.40625 10.242188 L 139.40625 139.992188 L 10.40625 139.992188 Z M 10.40625 10.242188 "/>
</clipPath>
</defs>
<g id="surface1">
<g clip-path="url(#clip1)" clip-rule="nonzero">
<path style=" stroke:none;fill-rule:nonzero;fill:rgb(0%,29.019165%,67.83905%);fill-opacity:1;" d="M 95.246094 75.117188 L 138.269531 31.953125 C 139.402344 30.816406 139.402344 28.980469 138.269531 27.84375 L 121.882812 11.398438 C 121.335938 10.851562 120.601562 10.546875 119.832031 10.546875 C 119.0625 10.546875 118.324219 10.851562 117.785156 11.398438 L 74.761719 54.5625 L 31.738281 11.398438 C 30.652344 10.308594 28.730469 10.308594 27.640625 11.398438 L 11.253906 27.84375 C 10.707031 28.386719 10.402344 29.125 10.402344 29.898438 C 10.402344 30.667969 10.707031 31.410156 11.253906 31.953125 L 54.273438 75.117188 L 11.253906 118.285156 C 10.707031 118.832031 10.402344 119.570312 10.402344 120.34375 C 10.402344 121.113281 10.707031 121.855469 11.253906 122.398438 L 27.640625 138.839844 C 28.207031 139.40625 28.949219 139.691406 29.691406 139.691406 C 30.433594 139.691406 31.175781 139.40625 31.738281 138.839844 L 74.761719 95.671875 L 117.785156 138.839844 C 118.917969 139.976562 120.75 139.976562 121.882812 138.839844 L 138.269531 122.398438 C 139.402344 121.261719 139.402344 119.421875 138.269531 118.285156 Z M 95.246094 75.117188 "/>
</g>
</g>
</svg>
